<svg width="512" height="512" viewBox="0 0 512 512" fill="none" xmlns="http://www.w3.org/2000/svg">
<path d="M467.16 32.952C472.376 32.952 476.048 33.921 477.96 34.657C480.256 40.769 483.337 62.6725 460.696 85.3285L345.2 200.816L346.032 215.145C347.784 245.128 351.032 298.865 353.832 344.928C356.304 385.928 358.648 424.648 358.8 427.944C358.88 430.209 358.913 430.745 356.801 433.289C352.081 439.025 343.273 448.745 335.849 456.801C324.337 425.785 300.144 360.272 286.784 323.6L269.616 276.417L234.105 311.928L168.801 374.72L159.705 383.801L159.425 396.641C159.209 406.889 159.257 425.28 159.281 441.496C159.313 452.792 159.345 463.056 159.265 468.712C159.121 468.976 161.449 469.288 161.233 469.664C159.841 467.432 158.345 465.025 156.761 462.521C143.593 441.521 125.369 412.473 119.809 403.409L115.745 396.768L109.073 392.736C84.809 378.08 57.929 361.16 41.529 350.592C42.097 350.264 42.5605 352 42.9365 351.8H44.0005C49.1605 351.8 57.6885 351.912 67.2485 352.048C79.7525 352.216 93.9365 352.424 104.793 352.424C108.953 352.424 112.649 352.392 115.625 352.328L128.464 352.032L137.544 342.952L200.417 278.096L235.809 242.72L188.841 225.44C153.545 212.457 85.937 187.208 54.313 175.328C62.4245 167.856 72.2005 158.984 77.9045 154.264C79.4965 152.952 80.737 152.28 81.5925 152.28L82.7205 152.312C86.2485 152.48 130.064 155.344 172.424 158.112C217.392 161.048 268.144 164.36 297 166.192L311.423 167.096L426.935 51.576C443.159 35.376 459.096 32.952 467.16 32.952ZM467.16 0.953503C448.256 0.953503 425.05 8.2165 404.322 28.9525L299.017 134.249C239.705 130.497 87.8015 120.448 84.0335 120.344C83.2208 120.303 82.4072 120.282 81.5935 120.28C76.4655 120.28 67.6095 121.264 57.5295 129.592C45.6975 139.376 21.0255 162.577 21.0255 162.577C15.0735 168.544 12.0575 175.937 12.7775 182.889C13.2175 187.089 15.4975 194.744 25.8095 198.777C32.0735 201.233 131.762 238.529 177.794 255.465L114.922 320.321C112.138 320.385 108.69 320.417 104.794 320.417C85.6255 320.417 55.9055 319.793 43.993 319.793C42.417 319.793 41.153 319.793 40.2565 319.825C36.6325 319.937 29.1285 318.153 9.3365 334.697L7.9285 336.009C1.9925 341.945 0.600501 347.865 0.472501 351.777C0.344501 355.809 1.4245 361.617 7.2565 366.289C10.7605 369.121 55.6805 397.881 92.52 420.129C101.353 434.537 141.993 499.129 144.113 502.633C147.209 507.865 152.272 510.849 158.329 511.041H158.833C164.721 511.041 170.769 508.121 176.689 502.369C193.441 482.777 191.129 474.665 191.201 471.257C191.465 460.569 191.017 415.289 191.401 397.337L256.697 334.537C273.385 380.377 309.865 479.041 312.305 485.32C316.369 495.632 324.024 497.897 328.224 498.32C328.912 498.4 329.617 498.433 330.305 498.433C336.617 498.433 343.161 495.465 348.521 490.105C348.521 490.105 371.649 465.561 381.473 453.617C391.313 441.681 390.929 431.489 390.737 426.681C390.657 423.353 381.393 272.273 377.953 213.273L483.28 107.945C520.609 70.6005 514.673 25.601 500.809 11.761C494.689 5.609 482.297 0.954003 467.16 0.953503Z" fill="white"/>
</svg>
